<svg xmlns="http://www.w3.org/2000/svg">
  <defs>
    <svg id="pen" viewBox="0 0 24 24">
      <path d="M13.337 3.6291C14.5077 2.45671 16.4067 2.45566 17.5782 3.62715L20.0704 6.11934C21.2317 7.28094 21.2433 9.16178 20.0968 10.3381L10.8634 19.8117L10.7198 19.9514C9.98245 20.6355 9.01152 21.0187 8.0011 21.0188L5.24915 21.0178C3.91679 21.0176 2.83575 19.977 2.755 18.676L2.75208 18.4123L2.87024 15.6027C2.91249 14.6013 3.32934 13.6526 4.03723 12.9436L13.337 3.6291ZM20.5148 18.9445C21.0667 18.9445 21.5146 19.3922 21.5148 19.9445C21.5148 20.497 21.0668 20.9455 20.5148 20.9455H14.3927L14.2902 20.9406C13.7864 20.8891 13.3937 20.4622 13.3937 19.9445C13.3939 19.427 13.7866 19.001 14.2902 18.9494L14.3927 18.9445H20.5148ZM5.45129 14.3576C5.09733 14.7122 4.88936 15.1869 4.86829 15.6877L4.74915 18.4963L4.75598 18.6008C4.7954 18.8363 5.00074 19.0175 5.24915 19.0178H8.0011C8.47268 19.0178 8.92705 18.8504 9.28528 18.55L9.43176 18.4143L15.7931 11.8879L11.8507 7.94648L5.45129 14.3576ZM16.1652 5.04316C15.7746 4.65265 15.1413 4.65238 14.7511 5.04316L13.2638 6.53145L17.1886 10.4563L18.6661 8.9416C19.0481 8.54969 19.0439 7.92258 18.6573 7.53535L16.1652 5.04316Z" fill="currentColor"/>
    </svg>
    <svg id="user" viewBox="0 0 24 24">
      <path d="M18.5 19C18.5 16.7909 15.8137 15 12.5 15C9.18629 15 6.5 16.7909 6.5 19M12.5 12C10.2909 12 8.5 10.2091 8.5 8C8.5 5.79086 10.2909 4 12.5 4C14.7091 4 16.5 5.79086 16.5 8C16.5 10.2091 14.7091 12 12.5 12Z" stroke="currentColor" stroke-width="2" stroke-linecap="round" stroke-linejoin="round" fill="none"/>
    </svg>

  </defs>
</svg>
