<svg width="288" height="62" viewBox="0 0 288 62" fill="none" xmlns="http://www.w3.org/2000/svg">
  <g clip-path="url(#clip0_2054_1991)">
    <path d="M7.73678 61.2522C21.0492 25.5755 34.9588 30.7741 47.0223 37.6537C47.4571 37.9017 47.463 38.5246 47.0349 38.7844L8.67877 62.0635C8.14735 62.386 7.51949 61.8345 7.73678 61.2522Z" fill="#D1D1D1"/>
    <path d="M7.73678 61.2522C21.0492 25.5755 34.9588 30.7741 47.0223 37.6537C47.4571 37.9017 47.463 38.5246 47.0349 38.7844L8.67877 62.0635C8.14735 62.386 7.51949 61.8345 7.73678 61.2522Z" fill="url(#paint0_linear_2054_1991)"/>
    <path d="M6.93978 60.8932C26.5551 27.9122 13.7075 20.3548 0.711676 15.2978C0.246287 15.1168 -0.240541 15.502 -0.175235 15.9971L5.71684 60.6675C5.79811 61.2839 6.62189 61.4276 6.93978 60.8932Z" fill="url(#paint1_linear_2054_1991)"/>
    <path d="M18.9599 0.0406509C24.9952 -0.534063 31.0304 5.15087 32.4835 6.62325C32.6838 6.82613 32.7118 7.14557 32.5697 7.39271C21.429 26.7722 11.8129 19.2329 1.33571 14.8935C0.920319 14.7214 0.782713 14.2036 1.07765 13.8643C3.51377 11.0613 12.9659 0.611437 18.9599 0.0406509Z" fill="#D1D1D1"/>
    <path d="M18.9599 0.0406509C24.9952 -0.534063 31.0304 5.15087 32.4835 6.62325C32.6838 6.82613 32.7118 7.14557 32.5697 7.39271C21.429 26.7722 11.8129 19.2329 1.33571 14.8935C0.920319 14.7214 0.782713 14.2036 1.07765 13.8643C3.51377 11.0613 12.9659 0.611437 18.9599 0.0406509Z" fill="url(#paint2_linear_2054_1991)"/>
    <path d="M47.855 14.2123C44.5526 9.12861 36.3471 7.93663 34.2904 7.71402C34.0069 7.68335 33.7393 7.85999 33.634 8.12494C25.3799 28.8984 37.2642 31.7417 47.1775 37.2488C47.5706 37.4672 48.0614 37.2531 48.1439 36.8111C48.8253 33.1605 51.1341 19.2613 47.855 14.2123Z" fill="#D1D1D1"/>
    <path d="M47.855 14.2123C44.5526 9.12861 36.3471 7.93663 34.2904 7.71402C34.0069 7.68335 33.7393 7.85999 33.634 8.12494C25.3799 28.8984 37.2642 31.7417 47.1775 37.2488C47.5706 37.4672 48.0614 37.2531 48.1439 36.8111C48.8253 33.1605 51.1341 19.2613 47.855 14.2123Z" fill="url(#paint3_linear_2054_1991)"/>
    <path d="M70.3037 47.4894L81.1116 17.9404H88.7108L99.4764 47.4894H91.455L89.4285 41.8329H79.5495L77.523 47.4894H70.3037ZM81.7026 36.0075H87.2754L84.489 27.2272L81.7026 36.0075ZM103.275 47.4894V17.9404H110.874V47.4894H103.275ZM127.755 47.4894V17.9404H140.631C143.108 17.9404 145.162 18.3485 146.795 19.1646C148.455 19.9807 149.708 21.1204 150.552 22.5838C151.397 24.0472 151.819 25.792 151.819 27.8182C151.819 29.9289 151.312 31.744 150.299 33.2637C149.314 34.7552 147.822 35.8527 145.824 36.5563L152.663 47.4894H144.22L138.478 37.3583H135.354V47.4894H127.755ZM135.354 31.4485H138.942C140.969 31.4485 142.348 31.153 143.08 30.562C143.84 29.9429 144.22 29.0283 144.22 27.8182C144.22 26.6081 143.84 25.7076 143.08 25.1166C142.348 24.4975 140.969 24.1879 138.942 24.1879H135.354V31.4485ZM166.412 48.0381C164.217 48.0381 162.246 47.6301 160.501 46.814C158.757 45.9697 157.363 44.6893 156.322 42.9726C155.309 41.2559 154.802 39.1031 154.802 36.514V35.6698C154.802 33.1933 155.295 31.139 156.28 29.5067C157.265 27.8745 158.602 26.6503 160.29 25.8342C162.007 24.99 163.907 24.5678 165.99 24.5678C169.677 24.5678 172.463 25.5247 174.349 27.4383C176.235 29.3238 177.178 32.0677 177.178 35.6698V38.0337H161.472C161.529 39.1312 161.782 40.0459 162.232 40.7775C162.711 41.5092 163.316 42.0439 164.048 42.3816C164.779 42.6912 165.568 42.846 166.412 42.846C167.65 42.846 168.621 42.6631 169.325 42.2972C170.057 41.9032 170.536 41.3826 170.76 40.7353H176.755C176.305 43.1837 175.193 45.0129 173.42 46.223C171.647 47.4331 169.311 48.0381 166.412 48.0381ZM166.201 29.76C165.413 29.76 164.667 29.8866 163.963 30.1399C163.259 30.3932 162.683 30.8153 162.232 31.4063C161.81 31.9691 161.571 32.7431 161.515 33.728H170.803C170.803 32.6867 170.592 31.8847 170.169 31.3219C169.747 30.7309 169.185 30.3228 168.481 30.0977C167.805 29.8726 167.045 29.76 166.201 29.76ZM190.259 48.0381C188.429 48.0381 186.853 47.8552 185.53 47.4894C184.235 47.0954 183.166 46.5747 182.322 45.9275C181.477 45.2521 180.844 44.4782 180.422 43.6058C180 42.7053 179.76 41.7484 179.704 40.7353H186.206C186.375 41.3545 186.741 41.9032 187.303 42.3816C187.866 42.8319 188.852 43.057 190.259 43.057C191.694 43.057 192.721 42.86 193.341 42.466C193.96 42.0721 194.269 41.5514 194.269 40.9042C194.269 40.5665 194.129 40.271 193.847 40.0177C193.594 39.7363 193.101 39.483 192.37 39.2579C191.666 39.0328 190.639 38.8076 189.288 38.5825C188.049 38.3855 186.881 38.1322 185.784 37.8226C184.714 37.5131 183.771 37.105 182.955 36.5985C182.139 36.0638 181.491 35.3884 181.013 34.5723C180.562 33.7562 180.337 32.7289 180.337 31.4907C180.337 30.1681 180.731 28.9861 181.519 27.9449C182.308 26.9036 183.448 26.0875 184.939 25.4965C186.431 24.8774 188.204 24.5678 190.259 24.5678C192.595 24.5678 194.438 24.9337 195.789 25.6654C197.169 26.3689 198.182 27.2835 198.829 28.4092C199.476 29.5067 199.856 30.6605 199.969 31.8706H193.425C193.256 31.1671 192.89 30.6043 192.327 30.1821C191.792 29.76 191.103 29.5489 190.259 29.5489C188.964 29.5489 188.063 29.746 187.557 30.1399C187.078 30.5339 186.839 31.0123 186.839 31.5752C186.839 32.138 187.233 32.5883 188.021 32.926C188.809 33.2355 190.061 33.5029 191.778 33.728C193.017 33.8969 194.171 34.1361 195.24 34.4456C196.338 34.7552 197.295 35.1914 198.111 35.7542C198.956 36.2889 199.617 36.9784 200.095 37.8226C200.574 38.6387 200.813 39.6378 200.813 40.8197C200.813 42.2268 200.405 43.4792 199.589 44.5767C198.801 45.6742 197.618 46.5325 196.043 47.1517C194.494 47.7426 192.567 48.0381 190.259 48.0381ZM211.857 48.0381C209.295 48.0381 207.339 47.3065 205.988 45.8431C204.637 44.3797 203.962 42.1565 203.962 39.1735V25.1166H210.463V38.1603C210.463 39.6237 210.759 40.7353 211.35 41.4952C211.969 42.255 212.954 42.6349 214.305 42.6349C215.262 42.6349 216.05 42.4379 216.669 42.0439C217.317 41.65 217.795 41.1152 218.105 40.4398C218.414 39.7644 218.569 39.0046 218.569 38.1603V25.1166H225.071V47.4894H219.076V44.45C218.485 45.4632 217.584 46.3215 216.374 47.025C215.192 47.7004 213.686 48.0381 211.857 48.0381ZM229.281 47.4894V25.1166H235.402V28.3248C235.909 27.3398 236.697 26.4674 237.767 25.7076C238.836 24.9478 240.159 24.5678 241.735 24.5678C243.508 24.5678 244.873 24.9055 245.83 25.5809C246.815 26.2563 247.533 27.171 247.983 28.3248C248.546 27.2554 249.419 26.3689 250.601 25.6654C251.783 24.9337 253.176 24.5678 254.78 24.5678C257.201 24.5678 259.045 25.2573 260.311 26.6363C261.578 27.9871 262.211 30.0133 262.211 32.7149V47.4894H255.709V34.319C255.709 32.7431 255.456 31.6314 254.949 30.9842C254.471 30.3088 253.683 29.9711 252.585 29.9711C251.938 29.9711 251.332 30.154 250.77 30.5198C250.235 30.8575 249.799 31.35 249.461 31.9973C249.152 32.6445 248.997 33.4185 248.997 34.319V47.4894H242.495V34.319C242.495 32.7431 242.242 31.6314 241.735 30.9842C241.257 30.3088 240.469 29.9711 239.371 29.9711C238.695 29.9711 238.09 30.154 237.555 30.5198C237.021 30.8575 236.584 31.35 236.247 31.9973C235.937 32.6445 235.782 33.4185 235.782 34.319V47.4894H229.281ZM276.987 48.0381C274.792 48.0381 272.822 47.6301 271.077 46.814C269.332 45.9697 267.939 44.6893 266.897 42.9726C265.884 41.2559 265.377 39.1031 265.377 36.514V35.6698C265.377 33.1933 265.87 31.139 266.855 29.5067C267.84 27.8745 269.177 26.6503 270.866 25.8342C272.583 24.99 274.483 24.5678 276.565 24.5678C280.252 24.5678 283.038 25.5247 284.924 27.4383C286.81 29.3238 287.753 32.0677 287.753 35.6698V38.0337H272.048C272.104 39.1312 272.357 40.0459 272.808 40.7775C273.286 41.5092 273.891 42.0439 274.623 42.3816C275.355 42.6912 276.143 42.846 276.987 42.846C278.225 42.846 279.196 42.6631 279.9 42.2972C280.632 41.9032 281.111 41.3826 281.336 40.7353H287.331C286.88 43.1837 285.769 45.0129 283.995 46.223C282.222 47.4331 279.886 48.0381 276.987 48.0381ZM276.776 29.76C275.988 29.76 275.242 29.8866 274.539 30.1399C273.835 30.3932 273.258 30.8153 272.808 31.4063C272.385 31.9691 272.146 32.7431 272.09 33.728H281.378C281.378 32.6867 281.167 31.8847 280.745 31.3219C280.322 30.7309 279.76 30.3228 279.056 30.0977C278.38 29.8726 277.621 29.76 276.776 29.76Z" fill="#8798FE"/>
    <path d="M70.3037 47.4894L81.1116 17.9404H88.7108L99.4764 47.4894H91.455L89.4285 41.8329H79.5495L77.523 47.4894H70.3037ZM81.7026 36.0075H87.2754L84.489 27.2272L81.7026 36.0075ZM103.275 47.4894V17.9404H110.874V47.4894H103.275ZM127.755 47.4894V17.9404H140.631C143.108 17.9404 145.162 18.3485 146.795 19.1646C148.455 19.9807 149.708 21.1204 150.552 22.5838C151.397 24.0472 151.819 25.792 151.819 27.8182C151.819 29.9289 151.312 31.744 150.299 33.2637C149.314 34.7552 147.822 35.8527 145.824 36.5563L152.663 47.4894H144.22L138.478 37.3583H135.354V47.4894H127.755ZM135.354 31.4485H138.942C140.969 31.4485 142.348 31.153 143.08 30.562C143.84 29.9429 144.22 29.0283 144.22 27.8182C144.22 26.6081 143.84 25.7076 143.08 25.1166C142.348 24.4975 140.969 24.1879 138.942 24.1879H135.354V31.4485ZM166.412 48.0381C164.217 48.0381 162.246 47.6301 160.501 46.814C158.757 45.9697 157.363 44.6893 156.322 42.9726C155.309 41.2559 154.802 39.1031 154.802 36.514V35.6698C154.802 33.1933 155.295 31.139 156.28 29.5067C157.265 27.8745 158.602 26.6503 160.29 25.8342C162.007 24.99 163.907 24.5678 165.99 24.5678C169.677 24.5678 172.463 25.5247 174.349 27.4383C176.235 29.3238 177.178 32.0677 177.178 35.6698V38.0337H161.472C161.529 39.1312 161.782 40.0459 162.232 40.7775C162.711 41.5092 163.316 42.0439 164.048 42.3816C164.779 42.6912 165.568 42.846 166.412 42.846C167.65 42.846 168.621 42.6631 169.325 42.2972C170.057 41.9032 170.536 41.3826 170.76 40.7353H176.755C176.305 43.1837 175.193 45.0129 173.42 46.223C171.647 47.4331 169.311 48.0381 166.412 48.0381ZM166.201 29.76C165.413 29.76 164.667 29.8866 163.963 30.1399C163.259 30.3932 162.683 30.8153 162.232 31.4063C161.81 31.9691 161.571 32.7431 161.515 33.728H170.803C170.803 32.6867 170.592 31.8847 170.169 31.3219C169.747 30.7309 169.185 30.3228 168.481 30.0977C167.805 29.8726 167.045 29.76 166.201 29.76ZM190.259 48.0381C188.429 48.0381 186.853 47.8552 185.53 47.4894C184.235 47.0954 183.166 46.5747 182.322 45.9275C181.477 45.2521 180.844 44.4782 180.422 43.6058C180 42.7053 179.76 41.7484 179.704 40.7353H186.206C186.375 41.3545 186.741 41.9032 187.303 42.3816C187.866 42.8319 188.852 43.057 190.259 43.057C191.694 43.057 192.721 42.86 193.341 42.466C193.96 42.0721 194.269 41.5514 194.269 40.9042C194.269 40.5665 194.129 40.271 193.847 40.0177C193.594 39.7363 193.101 39.483 192.37 39.2579C191.666 39.0328 190.639 38.8076 189.288 38.5825C188.049 38.3855 186.881 38.1322 185.784 37.8226C184.714 37.5131 183.771 37.105 182.955 36.5985C182.139 36.0638 181.491 35.3884 181.013 34.5723C180.562 33.7562 180.337 32.7289 180.337 31.4907C180.337 30.1681 180.731 28.9861 181.519 27.9449C182.308 26.9036 183.448 26.0875 184.939 25.4965C186.431 24.8774 188.204 24.5678 190.259 24.5678C192.595 24.5678 194.438 24.9337 195.789 25.6654C197.169 26.3689 198.182 27.2835 198.829 28.4092C199.476 29.5067 199.856 30.6605 199.969 31.8706H193.425C193.256 31.1671 192.89 30.6043 192.327 30.1821C191.792 29.76 191.103 29.5489 190.259 29.5489C188.964 29.5489 188.063 29.746 187.557 30.1399C187.078 30.5339 186.839 31.0123 186.839 31.5752C186.839 32.138 187.233 32.5883 188.021 32.926C188.809 33.2355 190.061 33.5029 191.778 33.728C193.017 33.8969 194.171 34.1361 195.24 34.4456C196.338 34.7552 197.295 35.1914 198.111 35.7542C198.956 36.2889 199.617 36.9784 200.095 37.8226C200.574 38.6387 200.813 39.6378 200.813 40.8197C200.813 42.2268 200.405 43.4792 199.589 44.5767C198.801 45.6742 197.618 46.5325 196.043 47.1517C194.494 47.7426 192.567 48.0381 190.259 48.0381ZM211.857 48.0381C209.295 48.0381 207.339 47.3065 205.988 45.8431C204.637 44.3797 203.962 42.1565 203.962 39.1735V25.1166H210.463V38.1603C210.463 39.6237 210.759 40.7353 211.35 41.4952C211.969 42.255 212.954 42.6349 214.305 42.6349C215.262 42.6349 216.05 42.4379 216.669 42.0439C217.317 41.65 217.795 41.1152 218.105 40.4398C218.414 39.7644 218.569 39.0046 218.569 38.1603V25.1166H225.071V47.4894H219.076V44.45C218.485 45.4632 217.584 46.3215 216.374 47.025C215.192 47.7004 213.686 48.0381 211.857 48.0381ZM229.281 47.4894V25.1166H235.402V28.3248C235.909 27.3398 236.697 26.4674 237.767 25.7076C238.836 24.9478 240.159 24.5678 241.735 24.5678C243.508 24.5678 244.873 24.9055 245.83 25.5809C246.815 26.2563 247.533 27.171 247.983 28.3248C248.546 27.2554 249.419 26.3689 250.601 25.6654C251.783 24.9337 253.176 24.5678 254.78 24.5678C257.201 24.5678 259.045 25.2573 260.311 26.6363C261.578 27.9871 262.211 30.0133 262.211 32.7149V47.4894H255.709V34.319C255.709 32.7431 255.456 31.6314 254.949 30.9842C254.471 30.3088 253.683 29.9711 252.585 29.9711C251.938 29.9711 251.332 30.154 250.77 30.5198C250.235 30.8575 249.799 31.35 249.461 31.9973C249.152 32.6445 248.997 33.4185 248.997 34.319V47.4894H242.495V34.319C242.495 32.7431 242.242 31.6314 241.735 30.9842C241.257 30.3088 240.469 29.9711 239.371 29.9711C238.695 29.9711 238.09 30.154 237.555 30.5198C237.021 30.8575 236.584 31.35 236.247 31.9973C235.937 32.6445 235.782 33.4185 235.782 34.319V47.4894H229.281ZM276.987 48.0381C274.792 48.0381 272.822 47.6301 271.077 46.814C269.332 45.9697 267.939 44.6893 266.897 42.9726C265.884 41.2559 265.377 39.1031 265.377 36.514V35.6698C265.377 33.1933 265.87 31.139 266.855 29.5067C267.84 27.8745 269.177 26.6503 270.866 25.8342C272.583 24.99 274.483 24.5678 276.565 24.5678C280.252 24.5678 283.038 25.5247 284.924 27.4383C286.81 29.3238 287.753 32.0677 287.753 35.6698V38.0337H272.048C272.104 39.1312 272.357 40.0459 272.808 40.7775C273.286 41.5092 273.891 42.0439 274.623 42.3816C275.355 42.6912 276.143 42.846 276.987 42.846C278.225 42.846 279.196 42.6631 279.9 42.2972C280.632 41.9032 281.111 41.3826 281.336 40.7353H287.331C286.88 43.1837 285.769 45.0129 283.995 46.223C282.222 47.4331 279.886 48.0381 276.987 48.0381ZM276.776 29.76C275.988 29.76 275.242 29.8866 274.539 30.1399C273.835 30.3932 273.258 30.8153 272.808 31.4063C272.385 31.9691 272.146 32.7431 272.09 33.728H281.378C281.378 32.6867 281.167 31.8847 280.745 31.3219C280.322 30.7309 279.76 30.3228 279.056 30.0977C278.38 29.8726 277.621 29.76 276.776 29.76Z" fill="url(#paint4_linear_2054_1991)"/>
  </g>
  <defs>
    <linearGradient id="paint0_linear_2054_1991" x1="7.65003" y1="61.3462" x2="33.9683" y2="28.3584" gradientUnits="userSpaceOnUse">
      <stop stop-color="white"/>
      <stop offset="1" stop-color="#8798FE" stop-opacity="0.8"/>
    </linearGradient>
    <linearGradient id="paint1_linear_2054_1991" x1="6.26662" y1="61.3404" x2="31.2323" y2="46.6954" gradientUnits="userSpaceOnUse">
      <stop stop-color="#8798FE" stop-opacity="0.8"/>
      <stop offset="1" stop-color="white"/>
    </linearGradient>
    <linearGradient id="paint2_linear_2054_1991" x1="0.659788" y1="14.8404" x2="31.3415" y2="3.24245" gradientUnits="userSpaceOnUse">
      <stop stop-color="white"/>
      <stop offset="1" stop-color="#8798FE" stop-opacity="0.8"/>
    </linearGradient>
    <linearGradient id="paint3_linear_2054_1991" x1="34.3025" y1="7.91484" x2="36.9537" y2="35.6358" gradientUnits="userSpaceOnUse">
      <stop stop-color="white"/>
      <stop offset="1" stop-color="#8798FE" stop-opacity="0.8"/>
    </linearGradient>
    <linearGradient id="paint4_linear_2054_1991" x1="68.5206" y1="40.2316" x2="160.795" y2="-114.108" gradientUnits="userSpaceOnUse">
      <stop stop-color="white"/>
      <stop offset="1" stop-color="#8798FE" stop-opacity="0.8"/>
    </linearGradient>
    <clipPath id="clip0_2054_1991">
      <rect width="287.611" height="62" fill="white"/>
    </clipPath>
  </defs>
</svg>
