<svg width="288" height="62" viewBox="0 0 288 62" fill="none" xmlns="http://www.w3.org/2000/svg">
  <g clip-path="url(#clip0_2054_1990)">
    <path d="M7.94857 61.2522C21.2592 25.5755 35.1671 30.7741 47.2291 37.6537C47.6638 37.9017 47.6697 38.5246 47.2417 38.7844L8.89044 62.0635C8.35909 62.386 7.7313 61.8345 7.94857 61.2522Z" fill="#D1D1D1"/>
    <path d="M7.94857 61.2522C21.2592 25.5755 35.1671 30.7741 47.2291 37.6537C47.6638 37.9017 47.6697 38.5246 47.2417 38.7844L8.89044 62.0635C8.35909 62.386 7.7313 61.8345 7.94857 61.2522Z" fill="url(#paint0_linear_2054_1990)"/>
    <path d="M7.15164 60.8932C26.7644 27.9122 13.9185 20.3548 0.924331 15.2978C0.459001 15.1168 -0.0277647 15.502 0.0375332 15.9971L5.92885 60.6675C6.01011 61.2839 6.83379 61.4276 7.15164 60.8932Z" fill="url(#paint1_linear_2054_1990)"/>
    <path d="M19.1703 0.0406509C25.2048 -0.534063 31.2392 5.15087 32.6922 6.62325C32.8924 6.82613 32.9204 7.14557 32.7784 7.39271C21.639 26.7722 12.0242 19.2329 1.5483 14.8935C1.13297 14.7214 0.995377 14.2036 1.29027 13.8643C3.72608 11.0613 13.177 0.611437 19.1703 0.0406509Z" fill="#D1D1D1"/>
    <path d="M19.1703 0.0406509C25.2048 -0.534063 31.2392 5.15087 32.6922 6.62325C32.8924 6.82613 32.9204 7.14557 32.7784 7.39271C21.639 26.7722 12.0242 19.2329 1.5483 14.8935C1.13297 14.7214 0.995377 14.2036 1.29027 13.8643C3.72608 11.0613 13.177 0.611437 19.1703 0.0406509Z" fill="url(#paint2_linear_2054_1990)"/>
    <path d="M48.0615 14.2123C44.7596 9.12861 36.5552 7.93663 34.4987 7.71402C34.2153 7.68335 33.9477 7.85999 33.8424 8.12494C25.5894 28.8984 37.4721 31.7417 47.3841 37.2488C47.7773 37.4672 48.268 37.2531 48.3504 36.8111C49.0318 33.1605 51.3403 19.2613 48.0615 14.2123Z" fill="#D1D1D1"/>
    <path d="M48.0615 14.2123C44.7596 9.12861 36.5552 7.93663 34.4987 7.71402C34.2153 7.68335 33.9477 7.85999 33.8424 8.12494C25.5894 28.8984 37.4721 31.7417 47.3841 37.2488C47.7773 37.4672 48.268 37.2531 48.3504 36.8111C49.0318 33.1605 51.3403 19.2613 48.0615 14.2123Z" fill="url(#paint3_linear_2054_1990)"/>
    <path d="M70.5076 47.4894L81.314 17.9404H88.9123L99.6766 47.4894H91.6562L89.6299 41.8329H79.7522L77.726 47.4894H70.5076ZM81.905 36.0075H87.4771L84.6911 27.2272L81.905 36.0075ZM103.474 47.4894V17.9404H111.073V47.4894H103.474ZM127.951 47.4894V17.9404H140.826C143.302 17.9404 145.357 18.3485 146.989 19.1646C148.649 19.9807 149.902 21.1204 150.746 22.5838C151.59 24.0472 152.013 25.792 152.013 27.8182C152.013 29.9289 151.506 31.744 150.493 33.2637C149.507 34.7552 148.016 35.8527 146.018 36.5563L152.857 47.4894H144.414L138.673 37.3583H135.55V47.4894H127.951ZM135.55 31.4485H139.138C141.164 31.4485 142.542 31.153 143.274 30.562C144.034 29.9429 144.414 29.0283 144.414 27.8182C144.414 26.6081 144.034 25.7076 143.274 25.1166C142.542 24.4975 141.164 24.1879 139.138 24.1879H135.55V31.4485ZM166.604 48.0381C164.409 48.0381 162.438 47.6301 160.694 46.814C158.949 45.9697 157.556 44.6893 156.515 42.9726C155.502 41.2559 154.995 39.1031 154.995 36.514V35.6698C154.995 33.1933 155.488 31.139 156.473 29.5067C157.457 27.8745 158.794 26.6503 160.483 25.8342C162.2 24.99 164.099 24.5678 166.181 24.5678C169.868 24.5678 172.654 25.5247 174.54 27.4383C176.425 29.3238 177.368 32.0677 177.368 35.6698V38.0337H161.665C161.721 39.1312 161.974 40.0459 162.425 40.7775C162.903 41.5092 163.508 42.0439 164.24 42.3816C164.971 42.6912 165.759 42.846 166.604 42.846C167.842 42.846 168.813 42.6631 169.516 42.2972C170.248 41.9032 170.727 41.3826 170.952 40.7353H176.946C176.495 43.1837 175.384 45.0129 173.611 46.223C171.838 47.4331 169.502 48.0381 166.604 48.0381ZM166.393 29.76C165.604 29.76 164.859 29.8866 164.155 30.1399C163.452 30.3932 162.875 30.8153 162.425 31.4063C162.002 31.9691 161.763 32.7431 161.707 33.728H170.994C170.994 32.6867 170.783 31.8847 170.361 31.3219C169.938 30.7309 169.376 30.3228 168.672 30.0977C167.997 29.8726 167.237 29.76 166.393 29.76ZM190.447 48.0381C188.618 48.0381 187.042 47.8552 185.719 47.4894C184.425 47.0954 183.355 46.5747 182.511 45.9275C181.667 45.2521 181.034 44.4782 180.612 43.6058C180.19 42.7053 179.95 41.7484 179.894 40.7353H186.395C186.564 41.3545 186.93 41.9032 187.492 42.3816C188.055 42.8319 189.04 43.057 190.447 43.057C191.882 43.057 192.909 42.86 193.529 42.466C194.148 42.0721 194.457 41.5514 194.457 40.9042C194.457 40.5665 194.317 40.271 194.035 40.0177C193.782 39.7363 193.289 39.483 192.558 39.2579C191.854 39.0328 190.827 38.8076 189.476 38.5825C188.238 38.3855 187.07 38.1322 185.973 37.8226C184.903 37.5131 183.96 37.105 183.144 36.5985C182.329 36.0638 181.681 35.3883 181.203 34.5723C180.752 33.7562 180.527 32.7289 180.527 31.4907C180.527 30.1681 180.921 28.9861 181.709 27.9449C182.497 26.9036 183.637 26.0875 185.128 25.4965C186.62 24.8774 188.393 24.5678 190.447 24.5678C192.783 24.5678 194.626 24.9337 195.977 25.6654C197.356 26.3689 198.369 27.2835 199.016 28.4092C199.663 29.5067 200.043 30.6605 200.156 31.8706H193.613C193.444 31.1671 193.078 30.6043 192.516 30.1821C191.981 29.76 191.291 29.5489 190.447 29.5489C189.152 29.5489 188.252 29.746 187.746 30.1399C187.267 30.5339 187.028 31.0123 187.028 31.5752C187.028 32.138 187.422 32.5883 188.21 32.926C188.998 33.2355 190.25 33.5029 191.967 33.728C193.205 33.8969 194.359 34.1361 195.428 34.4456C196.526 34.7552 197.483 35.1914 198.299 35.7542C199.143 36.2889 199.805 36.9784 200.283 37.8226C200.761 38.6387 201 39.6378 201 40.8197C201 42.2268 200.592 43.4792 199.776 44.5767C198.988 45.6742 197.806 46.5325 196.23 47.1517C194.682 47.7426 192.755 48.0381 190.447 48.0381ZM212.042 48.0381C209.481 48.0381 207.526 47.3065 206.175 45.8431C204.824 44.3797 204.149 42.1565 204.149 39.1734V25.1166H210.649V38.1603C210.649 39.6237 210.945 40.7353 211.536 41.4952C212.154 42.255 213.14 42.6349 214.491 42.6349C215.447 42.6349 216.235 42.4379 216.855 42.0439C217.502 41.65 217.98 41.1152 218.29 40.4398C218.599 39.7644 218.754 39.0046 218.754 38.1603V25.1166H225.255V47.4894H219.261V44.45C218.67 45.4632 217.769 46.3215 216.559 47.025C215.377 47.7004 213.871 48.0381 212.042 48.0381ZM229.464 47.4894V25.1166H235.585V28.3248C236.092 27.3398 236.88 26.4674 237.949 25.7076C239.018 24.9477 240.341 24.5678 241.917 24.5678C243.69 24.5678 245.055 24.9055 246.012 25.5809C246.996 26.2563 247.714 27.171 248.165 28.3248C248.727 27.2554 249.6 26.3689 250.782 25.6654C251.964 24.9337 253.357 24.5678 254.961 24.5678C257.381 24.5678 259.224 25.2573 260.491 26.6363C261.757 27.9871 262.39 30.0133 262.39 32.7149V47.4894H255.89V34.319C255.89 32.7431 255.636 31.6314 255.13 30.9842C254.652 30.3088 253.863 29.9711 252.766 29.9711C252.119 29.9711 251.513 30.154 250.951 30.5198C250.416 30.8575 249.98 31.35 249.642 31.9973C249.333 32.6445 249.178 33.4185 249.178 34.319V47.4894H242.677V34.319C242.677 32.7431 242.424 31.6314 241.917 30.9842C241.439 30.3088 240.651 29.9711 239.553 29.9711C238.878 29.9711 238.273 30.154 237.738 30.5198C237.203 30.8575 236.767 31.35 236.429 31.9973C236.12 32.6445 235.965 33.4185 235.965 34.319V47.4894H229.464ZM277.165 48.0381C274.97 48.0381 273 47.6301 271.255 46.814C269.51 45.9697 268.117 44.6893 267.076 42.9726C266.063 41.2559 265.556 39.1031 265.556 36.514V35.6698C265.556 33.1933 266.049 31.139 267.034 29.5067C268.018 27.8745 269.355 26.6503 271.044 25.8342C272.761 24.99 274.66 24.5678 276.743 24.5678C280.429 24.5678 283.215 25.5247 285.101 27.4383C286.987 29.3238 287.929 32.0677 287.929 35.6698V38.0337H272.226C272.282 39.1312 272.535 40.0459 272.986 40.7775C273.464 41.5092 274.069 42.0439 274.801 42.3816C275.532 42.6912 276.32 42.846 277.165 42.846C278.403 42.846 279.374 42.6631 280.077 42.2972C280.809 41.9032 281.288 41.3826 281.513 40.7353H287.507C287.056 43.1837 285.945 45.0129 284.172 46.223C282.399 47.4331 280.064 48.0381 277.165 48.0381ZM276.954 29.76C276.166 29.76 275.42 29.8866 274.716 30.1399C274.013 30.3932 273.436 30.8153 272.986 31.4063C272.564 31.9691 272.324 32.7431 272.268 33.728H281.555C281.555 32.6867 281.344 31.8847 280.922 31.3219C280.5 30.7309 279.937 30.3228 279.233 30.0977C278.558 29.8726 277.798 29.76 276.954 29.76Z" fill="#8798FE"/>
    <path d="M70.5076 47.4894L81.314 17.9404H88.9123L99.6766 47.4894H91.6562L89.6299 41.8329H79.7522L77.726 47.4894H70.5076ZM81.905 36.0075H87.4771L84.6911 27.2272L81.905 36.0075ZM103.474 47.4894V17.9404H111.073V47.4894H103.474ZM127.951 47.4894V17.9404H140.826C143.302 17.9404 145.357 18.3485 146.989 19.1646C148.649 19.9807 149.902 21.1204 150.746 22.5838C151.59 24.0472 152.013 25.792 152.013 27.8182C152.013 29.9289 151.506 31.744 150.493 33.2637C149.507 34.7552 148.016 35.8527 146.018 36.5563L152.857 47.4894H144.414L138.673 37.3583H135.55V47.4894H127.951ZM135.55 31.4485H139.138C141.164 31.4485 142.542 31.153 143.274 30.562C144.034 29.9429 144.414 29.0283 144.414 27.8182C144.414 26.6081 144.034 25.7076 143.274 25.1166C142.542 24.4975 141.164 24.1879 139.138 24.1879H135.55V31.4485ZM166.604 48.0381C164.409 48.0381 162.438 47.6301 160.694 46.814C158.949 45.9697 157.556 44.6893 156.515 42.9726C155.502 41.2559 154.995 39.1031 154.995 36.514V35.6698C154.995 33.1933 155.488 31.139 156.473 29.5067C157.457 27.8745 158.794 26.6503 160.483 25.8342C162.2 24.99 164.099 24.5678 166.181 24.5678C169.868 24.5678 172.654 25.5247 174.54 27.4383C176.425 29.3238 177.368 32.0677 177.368 35.6698V38.0337H161.665C161.721 39.1312 161.974 40.0459 162.425 40.7775C162.903 41.5092 163.508 42.0439 164.24 42.3816C164.971 42.6912 165.759 42.846 166.604 42.846C167.842 42.846 168.813 42.6631 169.516 42.2972C170.248 41.9032 170.727 41.3826 170.952 40.7353H176.946C176.495 43.1837 175.384 45.0129 173.611 46.223C171.838 47.4331 169.502 48.0381 166.604 48.0381ZM166.393 29.76C165.604 29.76 164.859 29.8866 164.155 30.1399C163.452 30.3932 162.875 30.8153 162.425 31.4063C162.002 31.9691 161.763 32.7431 161.707 33.728H170.994C170.994 32.6867 170.783 31.8847 170.361 31.3219C169.938 30.7309 169.376 30.3228 168.672 30.0977C167.997 29.8726 167.237 29.76 166.393 29.76ZM190.447 48.0381C188.618 48.0381 187.042 47.8552 185.719 47.4894C184.425 47.0954 183.355 46.5747 182.511 45.9275C181.667 45.2521 181.034 44.4782 180.612 43.6058C180.19 42.7053 179.95 41.7484 179.894 40.7353H186.395C186.564 41.3545 186.93 41.9032 187.492 42.3816C188.055 42.8319 189.04 43.057 190.447 43.057C191.882 43.057 192.909 42.86 193.529 42.466C194.148 42.0721 194.457 41.5514 194.457 40.9042C194.457 40.5665 194.317 40.271 194.035 40.0177C193.782 39.7363 193.289 39.483 192.558 39.2579C191.854 39.0328 190.827 38.8076 189.476 38.5825C188.238 38.3855 187.07 38.1322 185.973 37.8226C184.903 37.5131 183.96 37.105 183.144 36.5985C182.329 36.0638 181.681 35.3883 181.203 34.5723C180.752 33.7562 180.527 32.7289 180.527 31.4907C180.527 30.1681 180.921 28.9861 181.709 27.9449C182.497 26.9036 183.637 26.0875 185.128 25.4965C186.62 24.8774 188.393 24.5678 190.447 24.5678C192.783 24.5678 194.626 24.9337 195.977 25.6654C197.356 26.3689 198.369 27.2835 199.016 28.4092C199.663 29.5067 200.043 30.6605 200.156 31.8706H193.613C193.444 31.1671 193.078 30.6043 192.516 30.1821C191.981 29.76 191.291 29.5489 190.447 29.5489C189.152 29.5489 188.252 29.746 187.746 30.1399C187.267 30.5339 187.028 31.0123 187.028 31.5752C187.028 32.138 187.422 32.5883 188.21 32.926C188.998 33.2355 190.25 33.5029 191.967 33.728C193.205 33.8969 194.359 34.1361 195.428 34.4456C196.526 34.7552 197.483 35.1914 198.299 35.7542C199.143 36.2889 199.805 36.9784 200.283 37.8226C200.761 38.6387 201 39.6378 201 40.8197C201 42.2268 200.592 43.4792 199.776 44.5767C198.988 45.6742 197.806 46.5325 196.23 47.1517C194.682 47.7426 192.755 48.0381 190.447 48.0381ZM212.042 48.0381C209.481 48.0381 207.526 47.3065 206.175 45.8431C204.824 44.3797 204.149 42.1565 204.149 39.1734V25.1166H210.649V38.1603C210.649 39.6237 210.945 40.7353 211.536 41.4952C212.154 42.255 213.14 42.6349 214.491 42.6349C215.447 42.6349 216.235 42.4379 216.855 42.0439C217.502 41.65 217.98 41.1152 218.29 40.4398C218.599 39.7644 218.754 39.0046 218.754 38.1603V25.1166H225.255V47.4894H219.261V44.45C218.67 45.4632 217.769 46.3215 216.559 47.025C215.377 47.7004 213.871 48.0381 212.042 48.0381ZM229.464 47.4894V25.1166H235.585V28.3248C236.092 27.3398 236.88 26.4674 237.949 25.7076C239.018 24.9477 240.341 24.5678 241.917 24.5678C243.69 24.5678 245.055 24.9055 246.012 25.5809C246.996 26.2563 247.714 27.171 248.165 28.3248C248.727 27.2554 249.6 26.3689 250.782 25.6654C251.964 24.9337 253.357 24.5678 254.961 24.5678C257.381 24.5678 259.224 25.2573 260.491 26.6363C261.757 27.9871 262.39 30.0133 262.39 32.7149V47.4894H255.89V34.319C255.89 32.7431 255.636 31.6314 255.13 30.9842C254.652 30.3088 253.863 29.9711 252.766 29.9711C252.119 29.9711 251.513 30.154 250.951 30.5198C250.416 30.8575 249.98 31.35 249.642 31.9973C249.333 32.6445 249.178 33.4185 249.178 34.319V47.4894H242.677V34.319C242.677 32.7431 242.424 31.6314 241.917 30.9842C241.439 30.3088 240.651 29.9711 239.553 29.9711C238.878 29.9711 238.273 30.154 237.738 30.5198C237.203 30.8575 236.767 31.35 236.429 31.9973C236.12 32.6445 235.965 33.4185 235.965 34.319V47.4894H229.464ZM277.165 48.0381C274.97 48.0381 273 47.6301 271.255 46.814C269.51 45.9697 268.117 44.6893 267.076 42.9726C266.063 41.2559 265.556 39.1031 265.556 36.514V35.6698C265.556 33.1933 266.049 31.139 267.034 29.5067C268.018 27.8745 269.355 26.6503 271.044 25.8342C272.761 24.99 274.66 24.5678 276.743 24.5678C280.429 24.5678 283.215 25.5247 285.101 27.4383C286.987 29.3238 287.929 32.0677 287.929 35.6698V38.0337H272.226C272.282 39.1312 272.535 40.0459 272.986 40.7775C273.464 41.5092 274.069 42.0439 274.801 42.3816C275.532 42.6912 276.32 42.846 277.165 42.846C278.403 42.846 279.374 42.6631 280.077 42.2972C280.809 41.9032 281.288 41.3826 281.513 40.7353H287.507C287.056 43.1837 285.945 45.0129 284.172 46.223C282.399 47.4331 280.064 48.0381 277.165 48.0381ZM276.954 29.76C276.166 29.76 275.42 29.8866 274.716 30.1399C274.013 30.3932 273.436 30.8153 272.986 31.4063C272.564 31.9691 272.324 32.7431 272.268 33.728H281.555C281.555 32.6867 281.344 31.8847 280.922 31.3219C280.5 30.7309 279.937 30.3228 279.233 30.0977C278.558 29.8726 277.798 29.76 276.954 29.76Z" fill="url(#paint4_linear_2054_1990)"/>
  </g>
  <defs>
    <linearGradient id="paint0_linear_2054_1990" x1="7.86183" y1="61.3462" x2="47.3749" y2="38.6166" gradientUnits="userSpaceOnUse">
      <stop stop-color="#8798FE"/>
      <stop offset="1" stop-color="#D6DCFF"/>
    </linearGradient>
    <linearGradient id="paint1_linear_2054_1990" x1="7.13831" y1="61.0106" x2="-0.117007" y2="15.8297" gradientUnits="userSpaceOnUse">
      <stop stop-color="#D6DCFF"/>
      <stop offset="1" stop-color="#8798FE"/>
    </linearGradient>
    <linearGradient id="paint2_linear_2054_1990" x1="1.14787" y1="18.9256" x2="29.3468" y2="-0.486077" gradientUnits="userSpaceOnUse">
      <stop stop-color="#D6DCFF"/>
      <stop offset="1" stop-color="#8798FE"/>
    </linearGradient>
    <linearGradient id="paint3_linear_2054_1990" x1="44.475" y1="40.0694" x2="42.1469" y2="5.91426" gradientUnits="userSpaceOnUse">
      <stop stop-color="#8798FE"/>
      <stop offset="1" stop-color="#D6DCFF"/>
    </linearGradient>
    <linearGradient id="paint4_linear_2054_1990" x1="73.1564" y1="50.4231" x2="120.776" y2="-55.3244" gradientUnits="userSpaceOnUse">
      <stop stop-color="#8798FE"/>
      <stop offset="1" stop-color="#D6DCFF"/>
    </linearGradient>
    <clipPath id="clip0_2054_1990">
      <rect width="287.574" height="62" fill="white" transform="translate(0.212769)"/>
    </clipPath>
  </defs>
</svg>
