<svg width="50" height="62" viewBox="0 0 50 62" fill="none" xmlns="http://www.w3.org/2000/svg">
  <g clip-path="url(#clip0_2060_239)">
    <path d="M7.74734 61.2522C21.0777 25.5755 35.0061 30.7741 47.086 37.6537C47.5213 37.9017 47.5273 38.5246 47.0986 38.7844L8.6906 62.0635C8.15846 62.386 7.52975 61.8345 7.74734 61.2522Z" fill="url(#paint0_linear_2060_239)"/>
    <path d="M6.94916 60.8932C26.591 27.9122 13.7261 20.3548 0.712639 15.2978C0.246621 15.1168 -0.240865 15.502 -0.175471 15.9971L5.72457 60.6675C5.80595 61.2839 6.63084 61.4276 6.94916 60.8932Z" fill="url(#paint1_linear_2060_239)"/>
    <path d="M18.9855 0.0406509C25.029 -0.534063 31.0724 5.15087 32.5274 6.62325C32.728 6.82613 32.756 7.14557 32.6138 7.39271C21.4579 26.7722 11.8289 19.2329 1.33749 14.8935C0.92154 14.7214 0.783748 14.2036 1.07908 13.8643C3.51849 11.0613 12.9834 0.611437 18.9855 0.0406509Z" fill="url(#paint2_linear_2060_239)"/>
    <path d="M47.9196 14.2123C44.6128 9.12861 36.3962 7.93663 34.3367 7.71402C34.0528 7.68335 33.7848 7.85999 33.6794 8.12494C25.4141 28.8984 37.3145 31.7417 47.2412 37.2488C47.6349 37.4672 48.1263 37.2531 48.2089 36.8111C48.8912 33.1605 51.2031 19.2613 47.9196 14.2123Z" fill="url(#paint3_linear_2060_239)"/>
  </g>
  <defs>
    <linearGradient id="paint0_linear_2060_239" x1="7.66047" y1="61.3462" x2="47.2029" y2="38.566" gradientUnits="userSpaceOnUse">
      <stop stop-color="#8798FE"/>
      <stop offset="1" stop-color="#D6DCFF"/>
    </linearGradient>
    <linearGradient id="paint1_linear_2060_239" x1="6.93582" y1="61.0106" x2="-0.309321" y2="15.8264" gradientUnits="userSpaceOnUse">
      <stop stop-color="#D6DCFF"/>
      <stop offset="1" stop-color="#8798FE"/>
    </linearGradient>
    <linearGradient id="paint2_linear_2060_239" x1="0.936468" y1="18.9256" x2="29.1502" y2="-0.525047" gradientUnits="userSpaceOnUse">
      <stop stop-color="#D6DCFF"/>
      <stop offset="1" stop-color="#8798FE"/>
    </linearGradient>
    <linearGradient id="paint3_linear_2060_239" x1="44.3277" y1="40.0694" x2="42.003" y2="5.9138" gradientUnits="userSpaceOnUse">
      <stop stop-color="#8798FE"/>
      <stop offset="1" stop-color="#D6DCFF"/>
    </linearGradient>
    <clipPath id="clip0_2060_239">
      <rect width="50" height="62" fill="white"/>
    </clipPath>
  </defs>
</svg>
